<svg xmlns="http://www.w3.org/2000/svg" xmlns:xlink="http://www.w3.org/1999/xlink" id="Layer_1" x="0px" y="0px" width="144px" height="144px" viewBox="0 0 144 144" xml:space="preserve">
<path fill="#FFFFFF" d="M28.977,38.798l7.783,51.738c0.142,0.941,0.907,1.663,1.855,1.748l76.505,6.825  c0.946,0.085,1.827-0.487,2.133-1.386l24.423-71.421c0.49-1.438-0.685-2.892-2.191-2.716L30.772,36.447  C29.617,36.583,28.804,37.648,28.977,38.798"></path>
<path fill="#323B91" d="M28.977,38.798l7.783,51.738c0.142,0.941,0.907,1.663,1.855,1.748l76.505,6.825  c0.946,0.085,1.827-0.487,2.133-1.386l24.423-71.421c0.49-1.438-0.685-2.892-2.191-2.716L30.772,36.447  C29.617,36.583,28.804,37.648,28.977,38.798"></path>
<path fill="#323B91" d="M39.209,112.5c0,4.472-3.625,8.096-8.096,8.096c-4.472,0-8.096-3.624-8.096-8.096  c0-4.469,3.624-8.095,8.096-8.095C35.584,104.405,39.209,108.031,39.209,112.5"></path>
<path fill="#FFFFFF" d="M111.402,31.482c-0.154,3.936-0.23,8.419-0.23,13.447c0,5.031,0.286,10.878,0.861,17.548  c0.574,6.67,1.282,11.313,2.124,13.938l1.265,3.826c-5.129,3.865-12.287,8.054-21.475,12.574c0.076-2.624,0.113-5.212,0.113-7.763  c0-2.55-0.037-5.028-0.113-7.436c-3.064,0.511-6.032,0.766-8.902,0.766c-2.871,0-5.226-0.037-7.061-0.11  c-1.074,2.918-2.566,7.364-4.482,13.338c-2.754-1.31-5.778-3.332-9.071-6.068c-3.29-2.73-5.856-5.447-7.693-8.143  c2.373-2.259,4.553-5.464,6.545-9.619c4.287-8.672,8.192-18.952,11.713-30.831C91.535,35.786,103.67,33.961,111.402,31.482   M91.535,48.537c-2.91,4.155-6.432,11.408-10.566,21.759c1.609,0.07,5.818,0.108,12.633,0.108  c-0.46-7.581-1.035-13.995-1.722-19.242L91.535,48.537z"></path>
<path fill="#4770B7" d="M96.02,105.156l-60.297-7.565c-1.421-0.178-2.552-1.274-2.771-2.69l-6.979-45.03  c-0.146-0.947-0.961-1.645-1.917-1.645H7.93c-0.389,0-0.758,0.172-1.007,0.468l-4.4,5.215c-0.723,0.854-0.114,2.168,1.008,2.168  h13.811c0.993,0,1.828,0.752,1.929,1.742l4.856,47.466c1.811-1.752,4.267-2.843,6.987-2.843c5.287,0,9.571,4.094,9.979,9.275  l30.761,5.37c2.05-3.198,5.625-5.323,9.706-5.323c5.166,0,9.537,3.397,11.004,8.08l6.262-7.696  C100.959,109.524,99.376,105.578,96.02,105.156"></path>
<path fill="#323B91" d="M91.127,123.295c0,5.283-4.283,9.566-9.566,9.566s-9.568-4.283-9.568-9.566s4.285-9.567,9.568-9.567  S91.127,118.012,91.127,123.295"></path>
</svg>